<?xml version="1.0" encoding="UTF-8"?>
<svg xmlns="http://www.w3.org/2000/svg" version="1.1" viewBox="0 0 180.22 37.29">
  <defs>
    <style>
      .cls-1 {
        fill: #fff;
      }

      .cls-2 {
        fill: #0c9fae;
      }
    </style>
  </defs>
  <!-- Generator: Adobe Illustrator 28.7.9, SVG Export Plug-In . SVG Version: 1.2.0 Build 218)  -->
  <g>
    <g id="Layer_1">
      <rect class="cls-2" width="41.35" height="37.29"/>
    </g>
    <g id="Layer_2">
      <rect class="cls-2" width="41.73" height="37.29"/>
      <g>
        <path class="cls-1" d="M23.43,29.57c-1,0-1.8-.31-2.42-.93-.62-.62-.93-1.45-.93-2.48v-8.53h-3.78v-3.17h3.78v-4.69h3.84v4.69h4.15v3.17h-4.15v7.86c0,.61.28.91.85.91h2.93v3.17h-4.27Z"/>
        <path class="cls-1" d="M31.54,29.57v-15.12h3.78v1.71h.55c.22-.61.59-1.06,1.11-1.34s1.12-.43,1.81-.43h1.83v3.41h-1.89c-.98,0-1.78.26-2.41.78-.63.52-.94,1.32-.94,2.39v8.6h-3.84Z"/>
        <path class="cls-1" d="M47.94,30c-1.08,0-2.04-.19-2.9-.56s-1.53-.92-2.03-1.65c-.5-.72-.75-1.6-.75-2.64s.25-1.9.75-2.61c.5-.7,1.19-1.23,2.07-1.58.88-.36,1.89-.53,3.03-.53h4.15v-.85c0-.71-.22-1.3-.67-1.75-.45-.46-1.16-.69-2.13-.69s-1.67.22-2.13.66c-.47.44-.77,1-.91,1.69l-3.54-1.19c.24-.77.63-1.48,1.17-2.12.54-.64,1.26-1.16,2.16-1.55.9-.4,2.01-.59,3.31-.59,1.99,0,3.57.5,4.72,1.49,1.16,1,1.74,2.44,1.74,4.33v5.64c0,.61.28.91.85.91h1.22v3.17h-2.56c-.75,0-1.37-.18-1.86-.55s-.73-.85-.73-1.46v-.03h-.58c-.08.24-.26.56-.55.96-.28.4-.73.75-1.34,1.05-.61.3-1.44.46-2.5.46ZM48.61,26.89c1.08,0,1.96-.3,2.64-.9.68-.6,1.02-1.4,1.02-2.39v-.3h-3.87c-.71,0-1.27.15-1.68.46-.41.3-.61.73-.61,1.28s.21,1,.64,1.34c.43.35,1.05.52,1.86.52Z"/>
        <path class="cls-1" d="M67.66,30c-1.46,0-2.79-.3-3.98-.91-1.19-.61-2.13-1.49-2.82-2.65-.69-1.16-1.04-2.56-1.04-4.21v-.43c0-1.65.35-3.05,1.04-4.21.69-1.16,1.63-2.04,2.82-2.65,1.19-.61,2.51-.91,3.98-.91s2.68.25,3.72.76c1.04.51,1.87,1.2,2.51,2.09.64.88,1.06,1.89,1.27,3l-3.72.79c-.08-.61-.26-1.16-.55-1.65-.28-.49-.69-.87-1.2-1.16-.52-.28-1.16-.43-1.94-.43s-1.47.17-2.09.5c-.62.34-1.11.83-1.46,1.49-.36.66-.53,1.47-.53,2.42v.3c0,.96.18,1.76.53,2.42.35.66.84,1.16,1.46,1.49.62.34,1.32.5,2.09.5,1.16,0,2.04-.3,2.64-.9s.98-1.39,1.14-2.36l3.72.88c-.26,1.08-.72,2.06-1.36,2.94s-1.48,1.58-2.51,2.09c-1.04.51-2.28.76-3.72.76Z"/>
        <path class="cls-1" d="M78.42,29.57V8.24h3.84v11.8h.55l5-5.58h5l-6.98,7.32,7.22,7.8h-4.94l-5.3-6h-.55v6h-3.84Z"/>
        <path class="cls-1" d="M95.61,29.57V8.24h3.84v21.34h-3.84Z"/>
        <path class="cls-1" d="M105.64,12.69c-.69,0-1.28-.22-1.75-.67-.48-.45-.72-1.04-.72-1.77s.24-1.32.72-1.77c.48-.45,1.06-.67,1.75-.67s1.3.22,1.77.67c.47.45.7,1.04.7,1.77s-.23,1.32-.7,1.77c-.47.45-1.06.67-1.77.67ZM103.72,29.57v-15.12h3.84v15.12h-3.84Z"/>
        <path class="cls-1" d="M118.1,30c-1.97,0-3.59-.43-4.85-1.28-1.26-.85-2.02-2.07-2.29-3.66l3.54-.91c.14.71.38,1.27.72,1.68.34.41.75.7,1.25.87.5.17,1.04.26,1.63.26.89,0,1.55-.16,1.98-.47s.64-.71.64-1.17-.2-.83-.61-1.08c-.41-.25-1.06-.46-1.95-.62l-.85-.15c-1.06-.2-2.02-.48-2.9-.84-.87-.36-1.58-.85-2.1-1.48s-.79-1.44-.79-2.44c0-1.5.55-2.66,1.65-3.46,1.1-.8,2.54-1.2,4.33-1.2,1.69,0,3.09.38,4.21,1.13,1.12.75,1.85,1.74,2.19,2.96l-3.57,1.1c-.16-.77-.49-1.32-.99-1.65-.5-.32-1.11-.49-1.84-.49s-1.29.13-1.68.38c-.39.25-.58.6-.58,1.05,0,.49.2.85.61,1.08.41.23.96.41,1.65.53l.85.15c1.14.2,2.17.47,3.09.81.92.34,1.66.81,2.19,1.43.54.62.81,1.46.81,2.51,0,1.59-.57,2.81-1.72,3.67-1.15.86-2.69,1.3-4.62,1.3Z"/>
        <path class="cls-1" d="M133.28,29.57c-1,0-1.8-.31-2.42-.93-.62-.62-.93-1.45-.93-2.48v-8.53h-3.78v-3.17h3.78v-4.69h3.84v4.69h4.15v3.17h-4.15v7.86c0,.61.28.91.85.91h2.93v3.17h-4.27Z"/>
        <path class="cls-1" d="M151.54,19.82c-.81,0-1.5-.27-2.06-.81-.56-.54-.84-1.23-.84-2.09s.28-1.55.84-2.09c.56-.54,1.24-.81,2.06-.81s1.52.27,2.07.81c.55.54.82,1.23.82,2.09s-.27,1.55-.82,2.09c-.55.54-1.24.81-2.07.81ZM151.54,30c-.81,0-1.5-.27-2.06-.81-.56-.54-.84-1.23-.84-2.09s.28-1.55.84-2.09c.56-.54,1.24-.81,2.06-.81s1.52.27,2.07.81c.55.54.82,1.23.82,2.09s-.27,1.55-.82,2.09c-.55.54-1.24.81-2.07.81Z"/>
        <path class="cls-1" d="M155.6,35.67l8.96-27.43h3.84l-8.96,27.43h-3.84Z"/>
        <path class="cls-1" d="M167.42,35.67l8.96-27.43h3.84l-8.96,27.43h-3.84Z"/>
      </g>
    </g>
  </g>
</svg>