<?xml version="1.0" encoding="UTF-8"?>
<svg xmlns="http://www.w3.org/2000/svg" version="1.1" viewBox="0 0 4898.2 1049.1">
  <defs>
    <style>
      .cls-1 {
        fill: #fff;
      }

      .cls-2 {
        fill: #14a0af;
      }
    </style>
  </defs>
  <!-- Generator: Adobe Illustrator 28.7.9, SVG Export Plug-In . SVG Version: 1.2.0 Build 218)  -->
  <g>
    <g id="swquare">
      <rect class="cls-2" x=".4" width="1166" height="1049.4"/>
    </g>
    <g id="t">
      <path class="cls-1" d="M679.9,876.5c-28.2,0-51-8.8-68.6-26.3-17.5-17.5-26.3-41-26.3-70.3v-241.5h-107v-89.7h107v-132.8h108.7v132.8h117.3v89.7h-117.3v222.5c0,17.3,8,25.9,24.2,25.9h82.8v89.7h-120.8Z"/>
    </g>
    <g id="r">
      <path class="cls-1" d="M909.4,876.5v-427.8h107v48.3h15.5c6.3-17.3,16.8-29.9,31.5-38,14.7-8,31.8-12.1,51.3-12.1h51.8v96.6h-53.5c-27.6,0-50.3,7.3-68.1,22-17.8,14.7-26.7,37.2-26.7,67.7v243.2h-108.7Z"/>
    </g>
    <g id="a">
      <path class="cls-1" d="M1373.4,888.6c-30.5,0-57.8-5.3-81.9-16-24.2-10.6-43.3-26.2-57.4-46.6-14.1-20.4-21.1-45.3-21.1-74.6s7-53.9,21.1-73.7c14.1-19.8,33.6-34.8,58.7-44.9,25-10.1,53.6-15.1,85.8-15.1h117.3v-24.2c0-20.1-6.3-36.7-19-49.6-12.7-12.9-32.8-19.4-60.4-19.4s-47.2,6.2-60.4,18.5c-13.2,12.4-21.9,28.3-25.9,47.9l-100.1-33.6c6.9-21.8,18-41.8,33.2-59.9,15.2-18.1,35.6-32.8,61.2-44,25.6-11.2,56.8-16.8,93.6-16.8,56.3,0,100.9,14.1,133.7,42.3,32.8,28.2,49.2,69,49.2,122.5v159.6c0,17.3,8,25.9,24.2,25.9h34.5v89.7h-72.5c-21.3,0-38.8-5.2-52.6-15.5-13.8-10.3-20.7-24.2-20.7-41.4v-.9h-16.4c-2.3,6.9-7.5,16-15.5,27.2-8.1,11.2-20.7,21.1-38,29.8-17.3,8.6-40.8,12.9-70.7,12.9ZM1392.4,800.6c30.5,0,55.3-8.5,74.6-25.4,19.3-17,28.9-39.5,28.9-67.7v-8.6h-109.5c-20.1,0-35.9,4.3-47.4,12.9-11.5,8.6-17.3,20.7-17.3,36.2s6,28.2,18.1,38c12.1,9.8,29.6,14.7,52.6,14.7Z"/>
    </g>
    <g id="c">
      <path class="cls-1" d="M1931.5,888.6c-41.4,0-78.9-8.6-112.6-25.9-33.6-17.3-60.2-42.3-79.8-75-19.6-32.8-29.3-72.5-29.3-119v-12.1c0-46.6,9.8-86.3,29.3-119,19.5-32.8,46.1-57.8,79.8-75,33.6-17.3,71.2-25.9,112.6-25.9s75.9,7.2,105.2,21.6c29.3,14.4,53,34.1,71.2,59.1,18.1,25,30,53.3,35.8,85l-105.2,22.4c-2.3-17.3-7.5-32.8-15.5-46.6-8.1-13.8-19.4-24.7-34.1-32.8-14.7-8-32.9-12.1-54.8-12.1s-41.6,4.7-59.1,14.2c-17.5,9.5-31.3,23.6-41.4,42.3-10.1,18.7-15.1,41.6-15.1,68.6v8.6c0,27,5,49.9,15.1,68.6,10.1,18.7,23.9,32.8,41.4,42.3,17.5,9.5,37.2,14.2,59.1,14.2,32.8,0,57.6-8.5,74.6-25.4,17-17,27.7-39.2,32.3-66.8l105.2,25c-7.5,30.5-20.3,58.2-38.4,83.2-18.1,25-41.8,44.7-71.2,59.1-29.3,14.4-64.4,21.6-105.2,21.6Z"/>
    </g>
    <g id="k">
      <path class="cls-1" d="M2236,876.5V272.8h108.7v333.8h15.5l141.5-157.8h141.5l-197.5,207,204.4,220.8h-139.7l-150.1-169.9h-15.5v169.9h-108.7Z"/>
    </g>
    <g id="l">
      <path class="cls-1" d="M2722.5,876.5V272.8h108.7v603.8h-108.7Z"/>
    </g>
    <g id="i">
      <path class="cls-1" d="M3006.2,398.7c-19.6,0-36.1-6.3-49.6-19-13.5-12.6-20.3-29.3-20.3-50s6.8-37.4,20.3-50c13.5-12.6,30-19,49.6-19s36.8,6.3,50,19c13.2,12.7,19.8,29.3,19.8,50s-6.6,37.4-19.8,50c-13.2,12.7-29.9,19-50,19ZM2951.9,876.5v-427.8h108.7v427.8h-108.7Z"/>
    </g>
    <g id="s">
      <path class="cls-1" d="M3359,888.6c-55.8,0-101.5-12.1-137.1-36.2-35.7-24.2-57.2-58.7-64.7-103.5l100.1-25.9c4,20.1,10.8,35.9,20.3,47.4,9.5,11.5,21.3,19.7,35.4,24.6,14.1,4.9,29.5,7.3,46.1,7.3,25.3,0,44-4.4,56.1-13.4,12.1-8.9,18.1-20,18.1-33.2s-5.8-23.4-17.3-30.6c-11.5-7.2-29.9-13.1-55.2-17.7l-24.2-4.3c-29.9-5.7-57.2-13.7-81.9-23.7-24.7-10.1-44.6-24-59.5-41.8-15-17.8-22.4-40.8-22.4-69,0-42.5,15.5-75.2,46.6-97.9,31.1-22.7,71.9-34.1,122.5-34.1s87.4,10.6,119,31.9c31.6,21.3,52.3,49.2,62.1,83.7l-100.9,31.1c-4.6-21.8-13.9-37.4-28-46.6-14.1-9.2-31.5-13.8-52.2-13.8s-36.5,3.6-47.4,10.8c-10.9,7.2-16.4,17.1-16.4,29.8s5.7,24,17.3,30.6c11.5,6.6,27,11.6,46.6,15.1l24.2,4.3c32.2,5.8,61.4,13.4,87.5,22.9,26.2,9.5,46.9,23,62.1,40.5,15.2,17.5,22.9,41.3,22.9,71.2,0,44.9-16.3,79.5-48.7,103.9-32.5,24.4-76.1,36.7-130.7,36.7Z"/>
    </g>
    <g id="t-2" data-name="t">
      <path class="cls-1" d="M3788.6,876.5c-28.2,0-51-8.8-68.6-26.3-17.5-17.5-26.3-41-26.3-70.3v-241.5h-107v-89.7h107v-132.8h108.7v132.8h117.3v89.7h-117.3v222.5c0,17.3,8,25.9,24.2,25.9h82.8v89.7h-120.8Z"/>
    </g>
    <g id=":_x2F__x2F_">
      <path class="cls-1" d="M4086.1,600.5c-23,0-42.4-7.6-58.2-22.9-15.8-15.2-23.7-34.9-23.7-59.1s7.9-43.8,23.7-59.1c15.8-15.2,35.2-22.9,58.2-22.9s43.1,7.6,58.7,22.9c15.5,15.2,23.3,34.9,23.3,59.1s-7.8,43.9-23.3,59.1c-15.5,15.2-35.1,22.9-58.7,22.9ZM4086.1,888.6c-23,0-42.4-7.6-58.2-22.9-15.8-15.2-23.7-34.9-23.7-59.1s7.9-43.8,23.7-59.1c15.8-15.2,35.2-22.9,58.2-22.9s43.1,7.6,58.7,22.9c15.5,15.2,23.3,34.9,23.3,59.1s-7.8,43.9-23.3,59.1c-15.5,15.2-35.1,22.9-58.7,22.9Z"/>
      <path class="cls-1" d="M4200.8,1049.1l253.6-776.3h108.7l-253.6,776.3h-108.7Z"/>
      <path class="cls-1" d="M4535.5,1049.1l253.6-776.3h108.7l-253.6,776.3h-108.7Z"/>
    </g>
  </g>
</svg>